<svg width="347" height="161" viewBox="0 0 347 161" fill="none" xmlns="http://www.w3.org/2000/svg">
<mask id="mask0" mask-type="alpha" maskUnits="userSpaceOnUse" x="0" y="0" width="347" height="161">
<path fill-rule="evenodd" clip-rule="evenodd" d="M10 0C4.47715 0 0 4.47715 0 10V74.6534C0.0701517 74.6947 0.137471 74.7459 0.200474 74.8077L5.27286 79.7863C5.67223 80.1782 5.67223 80.8216 5.27286 81.2136L0.200471 86.1921C0.137469 86.254 0.0701508 86.3052 0 86.3465V151C0 156.523 4.47715 161 10 161H337C342.523 161 347 156.509 347 150.986V86.3465C346.93 86.3052 346.863 86.254 346.8 86.1921L341.727 81.2136C341.328 80.8216 341.328 80.1782 341.727 79.7863L346.8 74.8077C346.863 74.7459 346.93 74.6947 347 74.6534V10.0141C347 4.49122 342.523 0 337 0H10Z" fill="white"/>
</mask>
<g mask="url(#mask0)">
<path d="M0 10C0 4.47715 4.47715 0 10 0H337C342.523 0 347 4.49122 347 10.0141C347 63.5248 347 97.4752 347 150.986C347 156.509 342.523 161 337 161H10C4.47715 161 0 156.523 0 151V10Z" fill="white"/>
</svg>
